<?xml version="1.0" encoding="UTF-8" standalone="no"?>
<svg
   data-name="Layer 1"
   id="Layer_1"
   viewBox="0 0 64 64"
   version="1.1"
   sodipodi:docname="new_lesson_element.svg"
   width="64"
   height="64"
   inkscape:version="1.1.1 (3bf5ae0d25, 2021-09-20)"
   xmlns:inkscape="http://www.inkscape.org/namespaces/inkscape"
   xmlns:sodipodi="http://sodipodi.sourceforge.net/DTD/sodipodi-0.dtd"
   xmlns="http://www.w3.org/2000/svg"
   xmlns:svg="http://www.w3.org/2000/svg">
  <defs
     id="defs21">
    <inkscape:path-effect
       effect="fill_between_many"
       method="originald"
       linkedpaths="#path41117,0,1|#path41114,0,1|#path41111,0,1"
       id="path-effect41155" />
  </defs>
  <sodipodi:namedview
     id="namedview19"
     pagecolor="#ffffff"
     bordercolor="#666666"
     borderopacity="1.0"
     inkscape:pageshadow="2"
     inkscape:pageopacity="0.0"
     inkscape:pagecheckerboard="0"
     showgrid="false"
     fit-margin-top="0"
     fit-margin-left="0"
     fit-margin-right="0"
     fit-margin-bottom="0"
     inkscape:zoom="6.359375"
     inkscape:cx="24.29484"
     inkscape:cy="25.710074"
     inkscape:window-width="1920"
     inkscape:window-height="1007"
     inkscape:window-x="0"
     inkscape:window-y="0"
     inkscape:window-maximized="1"
     inkscape:current-layer="g1752" />
  <g
     id="g78976">
    <g
       id="g1731">
      <g
         id="g1752">
        <path
           d="m 29.061749,26.695579 a 2.5037162,2.5511825 0 1 0 -2.873824,0 4.40018,4.4836002 0 0 0 -2.590761,2.46598 4.40018,4.4836002 0 0 0 -2.592816,-2.46598 2.5037162,2.5511825 0 1 0 -2.873825,0 4.3864723,4.4696326 0 0 0 -2.940307,4.21193 0.34954701,0.35617385 0 1 0 0.699094,0 3.6784683,3.748206 0 0 1 7.356251,0 0.34954701,0.35617385 0 1 0 0.699094,0 3.6784683,3.748206 0 0 1 7.356251,0 0.34954701,0.35617385 0 1 0 0.699094,0 4.3864723,4.4696326 0 0 0 -2.938251,-4.21193 z M 17.765212,24.609518 a 1.8039367,1.8381364 0 1 1 1.804623,1.838136 1.8066783,1.8409299 0 0 1 -1.804623,-1.838136 z m 8.055346,0 a 1.8039367,1.8381364 0 1 1 1.803936,1.838136 1.8059929,1.8402316 0 0 1 -1.803936,-1.838136 z"
           id="path2"
           style="fill:#0000ff;stroke-width:0.0691853" />
        <path
           d="m 28.196792,10.716642 a 0.23782905,0.24233789 0 0 0 0.02125,-0.03073 0.27415452,0.27935204 0 0 0 0.01919,-0.03771 4.7092893,4.7985697 0 1 0 -0.04044,0.06984 z m 0,-2.5092795 A 3.9862067,4.0617787 0 0 1 27.78556,10.004295 L 24.534773,8.006229 V 4.1379017 a 4.0149929,4.0911106 0 0 1 3.660648,4.0694608 z m -8.01902,0 A 4.0143076,4.0904122 0 0 1 23.83842,4.1379017 V 12.279617 A 4.0149929,4.0911106 0 0 1 20.175031,8.2073625 Z m 4.357001,4.0722545 V 8.8379997 l 2.888903,1.7759803 a 4.0122514,4.0883171 0 0 1 -2.888903,1.665637 z"
           id="path4"
           style="fill:#0000ff;stroke-width:0.0691853" />
        <path
           d="M 18.695282,5.262992 A 0.34954701,0.35617385 0 0 0 18.345735,4.9068182 H 14.79749 a 0.34954701,0.35617385 0 1 0 0,0.7123477 h 3.548245 A 0.34954701,0.35617385 0 0 0 18.695282,5.262992 Z"
           id="path6"
           style="fill:#0000ff;stroke-width:0.0691853" />
        <path
           d="M 17.88447,7.6912596 A 0.34954701,0.35617385 0 0 0 17.534923,7.3350858 H 14.79749 a 0.34954701,0.35617385 0 1 0 0,0.7123477 h 2.737433 A 0.34954701,0.35617385 0 0 0 17.88447,7.6912596 Z"
           id="path8"
           style="fill:#0000ff;stroke-width:0.0691853" />
        <path
           d="m 14.79749,9.7654485 a 0.34954701,0.35617385 0 0 0 0,0.7123475 h 2.12881 a 0.34954701,0.35617385 0 1 0 0,-0.7123475 z"
           id="path10"
           style="fill:#0000ff;stroke-width:0.0691853" />
        <path
           d="m 20.228491,17.35684 a 1.5112768,1.5399281 0 0 0 -1.843689,-2.439441 l -3.109598,2.347953 -2.056159,-2.822154 C 12.186168,13.026884 11.076528,12.290791 9.5549699,12.062421 A 3.3145281,3.3773662 0 1 0 5.6688296,12.042861 3.9067019,3.9807666 0 0 0 2.4344917,15.95379 v 6.731685 a 1.4612436,1.4889464 0 0 0 1.476322,1.481963 1.4393112,1.4665982 0 0 0 0.753925,-0.2158 v 6.959358 a 0.34954701,0.35617385 0 1 0 0.699094,0 V 17.195514 a 0.34954701,0.35617385 0 1 0 -0.699094,0 v 5.489966 a 0.7655765,0.78009057 0 0 1 -1.531153,0 v -6.72959 a 3.2028102,3.2635302 0 0 1 3.1980125,-3.257245 h 2.0856305 c 2.2042023,0 3.2898543,0.868785 4.2391143,2.17266 l 2.265887,3.107792 a 0.34954701,0.35617385 0 0 0 0.48868,0.07333 l 3.389921,-2.560262 a 0.80944122,0.8247869 0 0 1 1.131573,0.184373 0.79710427,0.81221606 0 0 1 -0.140504,1.126487 l -3.413224,2.782346 a 2.0218896,2.0602213 0 0 1 -2.795691,-0.282844 l -1.965002,-2.384968 a 0.34954701,0.35617385 0 0 0 -0.616848,0.229069 v 13.760881 a 0.34954701,0.35617385 0 0 0 0.699094,0 V 18.122265 l 1.348155,1.635606 a 2.7271521,2.7788544 0 0 0 3.769625,0.381316 z M 5.0081172,9.3177869 A 2.6161195,2.6657168 0 1 1 7.6242367,11.983504 2.6195464,2.6692087 0 0 1 5.0081172,9.3177869 Z"
           id="path12"
           style="fill:#0000ff;stroke-width:0.0691853" />
        <path
           d="m 8.1560965,22.678497 a 0.34954701,0.35617385 0 0 0 -0.349547,0.356173 v 7.872839 a 0.34954701,0.35617385 0 0 0 0.699094,0 V 23.03467 a 0.34954701,0.35617385 0 0 0 -0.349547,-0.356173 z"
           id="path14"
           style="fill:#0000ff;stroke-width:0.0691853" />
        <path
           d="M 29.960291,19.060888 H 19.825484 a 0.34954701,0.35617385 0 0 0 0,0.712347 h 10.48641 a 0.34954701,0.35617385 0 0 0 0.349547,-0.356173 V 0.35617343 A 0.34954701,0.35617385 0 0 0 30.311894,-4.183e-7 H 0.34954653 A 0.34954701,0.35617385 0 0 0 -4.798e-7,0.35617343 V 14.406184 a 0.34954701,0.35617385 0 1 0 0.6990940298,0 V 0.71234728 H 29.960291 Z"
           id="path16"
           style="fill:#0000ff;stroke-width:0.0691853" />
        <path
           d="m 61.061748,26.695579 a 2.5037162,2.5511825 0 1 0 -2.873825,0 4.40018,4.4836002 0 0 0 -2.59076,2.46598 4.40018,4.4836002 0 0 0 -2.592817,-2.46598 2.5037162,2.5511825 0 1 0 -2.873824,0 4.3864723,4.4696326 0 0 0 -2.940308,4.21193 0.34954701,0.35617385 0 1 0 0.699094,0 3.6784683,3.748206 0 0 1 7.356251,0 0.34954701,0.35617385 0 1 0 0.699094,0 3.6784683,3.748206 0 0 1 7.356252,0 0.34954701,0.35617385 0 1 0 0.699094,0 4.3864723,4.4696326 0 0 0 -2.938251,-4.21193 z M 49.765211,24.609518 a 1.8039367,1.8381364 0 1 1 1.804622,1.838136 1.8066783,1.8409299 0 0 1 -1.804622,-1.838136 z m 8.055345,0 a 1.8039367,1.8381364 0 1 1 1.803937,1.838136 1.8059929,1.8402316 0 0 1 -1.803937,-1.838136 z"
           id="path2-6"
           style="fill:#d40000;stroke-width:0.0691853" />
        <path
           d="M 58.81224,5.262992 A 1.0175557,0.35617385 0 0 0 57.794685,4.9068182 H 47.465497 a 1.0175557,0.35617385 0 1 0 0,0.7123477 H 57.794685 A 1.0175557,0.35617385 0 0 0 58.81224,5.262992 Z"
           id="path6-5"
           style="fill:#d40000;stroke-width:0.118043" />
        <path
           d="M 60.57856,7.6912596 A 1.5618535,0.35617385 0 0 0 59.016707,7.3350858 H 46.785248 a 1.5618535,0.35617385 0 1 0 0,0.7123477 H 59.016707 A 1.5618535,0.35617385 0 0 0 60.57856,7.6912596 Z"
           id="path8-3"
           style="fill:#d40000;stroke-width:0.146245" />
        <path
           d="m 46.04299,9.7654485 a 0.81850438,0.35617385 0 0 0 0,0.7123475 h 4.984852 a 0.81850438,0.35617385 0 1 0 0,-0.7123475 z"
           id="path10-5"
           style="fill:#d40000;stroke-width:0.10587" />
        <path
           d="M 52.228489,17.35684 A 1.5112768,1.5399281 0 0 0 50.3848,14.917399 l -3.109598,2.347953 -2.056159,-2.822154 c -1.032877,-1.416314 -2.142517,-2.152407 -3.664075,-2.380777 a 3.3145281,3.3773662 0 1 0 -3.88614,-0.01956 3.9067019,3.9807666 0 0 0 -3.234338,3.910929 v 6.731685 a 1.4612436,1.4889464 0 0 0 1.476322,1.481963 1.4393112,1.4665982 0 0 0 0.753925,-0.2158 v 6.959358 a 0.34954701,0.35617385 0 1 0 0.699094,0 V 17.195514 a 0.34954701,0.35617385 0 1 0 -0.699094,0 v 5.489966 a 0.7655765,0.78009057 0 0 1 -1.531153,0 v -6.72959 a 3.2028102,3.2635302 0 0 1 3.198012,-3.257245 h 2.085631 c 2.204202,0 3.289854,0.868785 4.239114,2.17266 l 2.265887,3.107792 a 0.34954701,0.35617385 0 0 0 0.488681,0.07333 l 3.38992,-2.560262 a 0.80944122,0.8247869 0 0 1 1.131573,0.184373 0.79710427,0.81221606 0 0 1 -0.140504,1.126487 l -3.413224,2.782346 a 2.0218896,2.0602213 0 0 1 -2.795691,-0.282844 l -1.965002,-2.384968 a 0.34954701,0.35617385 0 0 0 -0.616848,0.229069 v 13.760881 a 0.34954701,0.35617385 0 0 0 0.699094,0 V 18.122265 l 1.348155,1.635606 a 2.7271521,2.7788544 0 0 0 3.769625,0.381316 z M 37.008115,9.3177869 a 2.6161195,2.6657168 0 1 1 2.61612,2.6657171 2.6195464,2.6692087 0 0 1 -2.61612,-2.6657171 z"
           id="path12-6"
           style="fill:#d40000;stroke-width:0.0691853" />
        <path
           d="m 40.156095,22.678497 a 0.34954701,0.35617385 0 0 0 -0.349547,0.356173 v 7.872839 a 0.34954701,0.35617385 0 0 0 0.699094,0 V 23.03467 a 0.34954701,0.35617385 0 0 0 -0.349547,-0.356173 z"
           id="path14-2"
           style="fill:#d40000;stroke-width:0.0691853" />
        <path
           d="M 61.960289,19.060888 H 51.825482 a 0.34954701,0.35617385 0 0 0 0,0.712347 h 10.48641 a 0.34954701,0.35617385 0 0 0 0.349547,-0.356173 V 0.35617343 A 0.34954701,0.35617385 0 0 0 62.311892,-4.183e-7 H 32.349545 A 0.34954701,0.35617385 0 0 0 31.999998,0.35617343 V 14.406184 a 0.34954701,0.35617385 0 1 0 0.699094,0 V 0.71234728 h 29.261197 z"
           id="path16-9"
           style="fill:#d40000;stroke-width:0.0691853" />
        <text
           xml:space="preserve"
           style="font-style:normal;font-weight:normal;font-size:37.5282px;line-height:1.25;font-family:sans-serif;fill:#008000;fill-opacity:1;stroke:none;stroke-width:1.40731"
           x="32.480877"
           y="59.498993"
           id="text8246"
           transform="scale(0.99788758,1.0021169)"><tspan
             sodipodi:role="line"
             id="tspan8244"
             x="32.480877"
             y="59.498993"
             style="font-size:37.5282px;fill:#008000;fill-opacity:1;stroke-width:1.40731">+</tspan></text>
        <path
           inkscape:original-d="M 0,0"
           inkscape:path-effect="#path-effect41155"
           d="M 0,0"
           id="path41157" />
        <path
           style="display:inline;fill:#008000;stroke-width:0.0535212"
           d="m 11.991088,60.937996 c -0.449763,-0.0662 -1.536716,-0.423862 -4.3395456,-1.427945 -0.3785208,-0.135599 -0.7068011,-0.236613 -0.7295127,-0.224473 -0.022714,0.01212 -0.041292,0.101111 -0.041292,0.197711 0,0.240746 -0.070843,0.396662 -0.2848919,0.627038 C 6.2660536,60.465269 6.1254896,60.495712 4.8105299,60.497008 4.0851086,60.497799 3.578482,60.475918 3.4616205,60.438928 3.1542492,60.341674 2.9127325,60.13632 2.7735636,59.853882 L 2.6423819,59.587654 2.6421536,54.879141 c -1.556e-4,-3.186331 0.018824,-4.773342 0.058704,-4.909059 0.032407,-0.110304 0.1595918,-0.303747 0.2826226,-0.429876 0.3436374,-0.352287 0.5757575,-0.397324 1.9321935,-0.374897 1.0085373,0.01668 1.1321096,0.0287 1.3319064,0.129586 0.4147204,0.209418 0.6331621,0.538146 0.6331621,0.95283 0,0.166118 0.02557,0.271795 0.068827,0.284378 0.037853,0.01102 0.3204304,0.03366 0.627951,0.05033 l 0.5591291,0.03031 -0.029295,-0.403882 c -0.038794,-0.534872 0.065255,-1.509779 0.2399394,-2.248237 0.6326616,-2.674423 2.6091053,-5.406719 5.4631573,-7.552425 0.241113,-0.181272 0.429946,-0.342494 0.419626,-0.358275 -0.01032,-0.01577 -0.243188,-0.01175 -0.517485,0.009 -1.231323,0.09296 -2.242127,0.559037 -2.762504,1.27376 -0.146413,0.201093 -0.189713,0.227376 -0.3746,0.227376 -0.458173,0 -0.518244,-0.345867 -0.143597,-0.826783 0.600552,-0.770901 1.724821,-1.278246 3.152108,-1.422438 0.340667,-0.03442 0.619396,-0.0845 0.619396,-0.111308 0,-0.08703 -0.460818,-0.455503 -0.743276,-0.594323 -0.258064,-0.126834 -0.340726,-0.137545 -1.321377,-0.171216 -0.924408,-0.03174 -1.092908,-0.05149 -1.448539,-0.169797 -0.554839,-0.184576 -0.9971272,-0.432442 -1.0627697,-0.595595 -0.07417,-0.184347 0.029746,-0.401892 0.2292745,-0.479993 0.1430114,-0.05597 0.2006472,-0.04162 0.5871452,0.146264 0.622557,0.302636 0.812026,0.338839 1.832532,0.350147 0.770794,0.0086 0.957262,0.02681 1.230595,0.120587 0.393222,0.134906 0.653214,0.28265 0.949043,0.539305 0.204158,0.177121 0.234889,0.188373 0.330347,0.120953 0.103618,-0.07319 0.103618,-0.07699 -1.1e-4,-0.246008 -0.457703,-0.745717 -0.66067,-1.106881 -0.802464,-1.427928 -0.434257,-0.983228 -0.444395,-1.666266 -0.03036,-2.045481 0.158447,-0.145123 0.232304,-0.17503 0.427234,-0.173003 0.129617,0.0014 0.347161,0.05156 0.483429,0.111584 0.340306,0.149899 0.439553,0.140595 0.892706,-0.08368 0.34405,-0.170281 0.440177,-0.194581 0.755548,-0.19099 0.302172,0.0034 0.426486,0.03539 0.759139,0.195105 0.218774,0.105044 0.452297,0.190989 0.518928,0.190989 0.06663,0 0.308813,-0.08772 0.538186,-0.194935 0.580161,-0.271182 0.912843,-0.271215 1.501028,-1.46e-4 0.48873,0.225235 0.551135,0.23156 0.898081,0.09102 0.715278,-0.289731 1.183735,0.04501 1.183735,0.845857 0,0.619601 -0.319126,1.402819 -0.99516,2.442381 l -0.328992,0.505902 0.186224,0.249076 c 0.238071,0.318421 0.312066,0.530914 0.312066,0.89618 v 0.293397 l 0.56434,0.425321 c 0.873512,0.658337 0.977405,0.760456 0.976427,0.959769 -4.16e-4,0.09446 -0.01904,0.197504 -0.04129,0.228988 -0.05373,0.07603 -0.260529,0.17688 -0.362723,0.17688 -0.04497,0 -0.411024,-0.255655 -0.81347,-0.568119 l -0.731721,-0.568123 -0.222477,0.1228 c -0.572466,0.315983 -1.733754,0.470238 -3.195581,0.424472 -1.052551,-0.03295 -1.88547,-0.159237 -2.30074,-0.348832 l -0.218753,-0.09987 -0.584681,0.451528 c -0.737338,0.569417 -2.000143,1.761712 -2.549475,2.407119 -1.28134,1.505441 -2.1658333,3.177076 -2.5224929,4.767342 -0.128375,0.572399 -0.2121773,2.142883 -0.1256113,2.354003 0.040586,0.099 0.1602448,0.157487 0.6008734,0.293718 0.5575778,0.172389 1.2800208,0.491604 1.9673268,0.869275 0.563733,0.309769 1.072082,0.538375 1.411537,0.634775 0.166549,0.0473 1.459714,0.21364 2.873699,0.369647 2.818788,0.311003 2.947992,0.337666 3.501199,0.722503 0.612976,0.426417 0.977116,1.077758 1.041139,1.862305 0.02824,0.346085 0.04718,0.405322 0.12145,0.379732 0.0484,-0.01667 1.199616,-0.491915 2.55827,-1.056091 l 2.470286,-1.025779 0.242313,-0.390208 c 0.287867,-0.463572 0.530962,-1.039557 0.724619,-1.716916 0.131058,-0.45839 0.141491,-0.577338 0.143852,-1.638876 0.0025,-1.078277 -0.0064,-1.180555 -0.152537,-1.764852 -0.450216,-1.800732 -1.34853,-3.3913 -2.834673,-5.01913 -0.293505,-0.321488 -0.393862,-0.469965 -0.393862,-0.58272 0,-0.205974 0.174775,-0.359422 0.409374,-0.359422 0.162932,0 0.231225,0.04507 0.492743,0.325174 1.53665,1.645875 2.620808,3.513343 3.069214,5.286731 0.430104,1.701016 0.33099,3.467192 -0.275267,4.905175 -0.08875,0.210507 -0.143657,0.389095 -0.122033,0.396862 0.02162,0.0077 0.198775,-0.0535 0.393658,-0.136131 0.95593,-0.405378 1.708287,-0.327165 2.256207,0.234552 0.346782,0.355511 0.463793,0.64154 0.46477,1.136128 6.42e-4,0.34814 -0.02355,0.463134 -0.148235,0.703025 -0.08199,0.157741 -0.230638,0.35924 -0.330346,0.447778 -0.165565,0.147025 -7.480579,4.550859 -8.151305,4.907313 -0.397025,0.210995 -1.193225,0.452966 -1.71032,0.51978 -0.663991,0.0858 -6.979005,0.06516 -7.590187,-0.0248 z m 8.130981,-0.849491 c 0.21197,-0.06737 0.509281,-0.181646 0.660691,-0.253952 0.360432,-0.172131 7.889382,-4.674891 8.057392,-4.818799 0.429518,-0.367907 0.361626,-1.080062 -0.132304,-1.387739 -0.238124,-0.14833 -0.615948,-0.131409 -1.088787,0.04876 -0.217016,0.0827 -2.002796,0.820187 -3.968404,1.638874 l -3.573824,1.488523 h -2.496264 c -2.422854,0 -2.499502,-0.003 -2.606378,-0.104053 -0.144136,-0.136195 -0.139999,-0.353441 0.0096,-0.503917 l 0.119713,-0.120424 h 2.220231 2.220232 v -0.406779 c 0,-0.498295 -0.110922,-0.870264 -0.347353,-1.164763 C 18.987152,54.243294 18.572873,53.965401 18.28633,53.893612 18.175581,53.865865 16.994829,53.724437 15.662436,53.579325 14.218443,53.422058 13.063844,53.270776 12.804038,53.204803 12.391798,53.100126 11.800692,52.836418 10.44665,52.153117 9.4445936,51.647438 8.5393878,51.396999 7.4175737,51.315071 l -0.481753,-0.03518 v 0.543199 c 0,0.621428 -0.058141,0.831813 -0.2530897,0.915748 -0.1995245,0.0859 -0.3017782,0.07352 -0.4453445,-0.05393 -0.1259951,-0.111846 -0.1274281,-0.1265 -0.1274281,-1.303059 V 50.191921 L 5.9748163,50.064216 C 5.8406426,49.937424 5.8320526,49.936509 4.773933,49.936509 c -0.996426,0 -1.073579,0.0069 -1.1862386,0.106083 L 3.467197,50.148673 v 4.668897 c 0,4.141511 0.00972,4.681958 0.085706,4.784529 0.083802,0.113057 0.1106943,0.115639 1.2072695,0.115639 H 5.8817339 L 5.995844,59.580646 C 6.1079509,59.445961 6.1099551,59.396233 6.1099551,56.748907 V 54.054255 L 6.255023,53.946423 c 0.1888504,-0.140382 0.3095238,-0.136101 0.4987867,0.01769 l 0.1544779,0.125523 0.016009,2.182649 0.016009,2.18265 2.3796875,0.836236 c 1.3088299,0.45993 2.5032529,0.858966 2.6542749,0.886743 0.164044,0.03017 1.781795,0.04699 4.018496,0.04179 l 3.743911,-0.0087 z M 19.201238,40.256162 c 0.91589,-0.14688 1.058475,-0.241142 1.058475,-0.699774 0,-0.199866 -0.02897,-0.268914 -0.167829,-0.400142 -0.18699,-0.176699 -0.162894,-0.176475 -1.043437,-0.0097 -0.748025,0.141667 -2.166162,0.127527 -2.988497,-0.0298 l -0.648552,-0.124076 -0.149783,0.105074 c -0.212912,0.149365 -0.295773,0.323146 -0.266165,0.558225 0.03999,0.31751 0.203264,0.430094 0.803164,0.55382 1.075137,0.22174 2.21249,0.237245 3.402624,0.04639 z m -0.0068,-1.919107 0.613997,-0.119352 0.257099,-0.383522 c 0.597453,-0.891235 1.075081,-1.91799 1.075081,-2.311097 0,-0.137734 -0.01617,-0.158961 -0.09635,-0.126587 -0.277563,0.112046 -0.668642,0.179983 -0.867158,0.15064 -0.121127,-0.0179 -0.387499,-0.112194 -0.591935,-0.209534 -0.204437,-0.09733 -0.434285,-0.17698 -0.510775,-0.17698 -0.07648,0 -0.313473,0.08633 -0.526634,0.191852 -0.54325,0.268922 -0.906535,0.268922 -1.505782,0 -0.235127,-0.105519 -0.490054,-0.191853 -0.566497,-0.191853 -0.07644,0 -0.266555,0.06897 -0.422466,0.153263 -0.420918,0.227572 -0.746654,0.282758 -1.126276,0.190813 -0.17074,-0.04135 -0.347601,-0.08301 -0.393023,-0.09257 -0.115354,-0.02427 -0.08842,0.301127 0.06095,0.736398 0.132237,0.385337 0.600216,1.253015 0.956554,1.773546 0.230315,0.336438 0.252735,0.353594 0.533667,0.408345 0.991474,0.193232 2.137059,0.195677 3.109548,0.0067 z m -1.956935,12.636883 c -0.333075,-0.06335 -0.911122,-0.326575 -1.253321,-0.570721 -0.484212,-0.345466 -0.971229,-1.025209 -1.117813,-1.560161 -0.03515,-0.128291 -0.07649,-0.274225 -0.09188,-0.324301 -0.02176,-0.07084 -0.08825,-0.09105 -0.299539,-0.09105 h -0.271577 v -0.312166 -0.312167 h 0.247758 0.247759 v -0.231133 -0.231135 l -0.233994,-0.01601 -0.233994,-0.01601 -0.01651,-0.299161 -0.01651,-0.299158 h 0.267006 0.267005 l 0.117799,-0.377202 c 0.313207,-1.002907 1.090705,-1.520294 2.084708,-1.387273 0.190051,0.02543 0.439953,0.08695 0.55534,0.136697 0.239222,0.103146 0.820407,0.458631 0.867477,0.530601 0.01725,0.02636 -0.04936,0.215023 -0.147997,0.419236 l -0.179346,0.371296 -0.192701,-0.138485 c -0.520289,-0.373907 -1.113676,-0.490749 -1.464792,-0.288425 -0.205924,0.11866 -0.402235,0.404406 -0.443695,0.645836 -0.02995,0.174376 -0.02721,0.177153 0.20956,0.21219 0.131946,0.01953 0.481467,0.09649 0.776714,0.171036 l 0.536812,0.135534 v 0.336336 c 0,0.266801 -0.01592,0.330564 -0.07703,0.308407 -0.250239,-0.09074 -1.47083,-0.349891 -1.518063,-0.322305 -0.03115,0.01819 -0.05664,0.1249 -0.05664,0.237126 0,0.180196 0.01771,0.207772 0.151406,0.235894 0.08327,0.01753 0.382794,0.0882 0.665597,0.157074 0.282805,0.06888 0.52437,0.12523 0.536812,0.12523 0.01244,0 0.02262,0.154721 0.02262,0.343823 0,0.331459 -0.0044,0.342655 -0.123878,0.311451 -0.06813,-0.0178 -0.346864,-0.08849 -0.619397,-0.157081 l -0.495516,-0.124712 -0.01877,0.107907 c -0.03232,0.185778 0.325469,0.77167 0.585429,0.958663 0.29743,0.213945 0.860988,0.380923 1.285636,0.380923 h 0.32661 l -0.01583,0.481257 -0.01584,0.481256 -0.302816,0.0083 c -0.16655,0.0046 -0.411623,-0.01228 -0.54461,-0.03757 z"
           id="path1092"
           inkscape:label="path1092" />
      </g>
    </g>
  </g>
</svg>
