<?xml version="1.0" encoding="UTF-8" standalone="no"?>
<svg
   version="1.1"
   id="Layer_1"
   x="0px"
   y="0px"
   viewBox="0 0 64 64.000001"
   xml:space="preserve"
   sodipodi:docname="trash.svg"
   inkscape:version="1.1.1 (3bf5ae0d25, 2021-09-20)"
   width="64"
   height="64"
   xmlns:inkscape="http://www.inkscape.org/namespaces/inkscape"
   xmlns:sodipodi="http://sodipodi.sourceforge.net/DTD/sodipodi-0.dtd"
   xmlns="http://www.w3.org/2000/svg"
   xmlns:svg="http://www.w3.org/2000/svg"><defs
   id="defs61" /><sodipodi:namedview
   id="namedview59"
   pagecolor="#ffffff"
   bordercolor="#666666"
   borderopacity="1.0"
   inkscape:pageshadow="2"
   inkscape:pageopacity="0.0"
   inkscape:pagecheckerboard="0"
   showgrid="false"
   inkscape:zoom="2.5024287"
   inkscape:cx="139.66432"
   inkscape:cy="134.46937"
   inkscape:window-width="1920"
   inkscape:window-height="1007"
   inkscape:window-x="0"
   inkscape:window-y="0"
   inkscape:window-maximized="1"
   inkscape:current-layer="Layer_1"
   fit-margin-left="2.7755576e-17"
   fit-margin-top="4"
   fit-margin-bottom="4"
   fit-margin-right="0" />
<g
   id="g26"
   style="fill:#d40000"
   transform="matrix(0.17215725,0,0,0.17215725,4.0861771,4)">
	<g
   id="g24"
   style="fill:#d40000">
		<g
   id="g22"
   style="fill:#d40000">
			<path
   d="M 289.782,63.456 H 35.502 c -7.04,0 -12.768,5.732 -12.768,12.768 0,7.036 5.732,12.768 12.768,12.768 h 2.828 l 25.856,206.644 c 0,16.348 13.3,29.648 29.648,29.648 h 137.62 c 16.348,0 29.648,-13.3 29.616,-29.192 l 25.888,-207.1 h 2.824 c 7.04,0 12.768,-5.732 12.768,-12.768 0,-7.036 -5.728,-12.768 -12.768,-12.768 z M 253.738,295.64 c 0,12.288 -9.996,22.284 -22.284,22.284 H 93.834 c -12.288,0 -22.284,-9.996 -22.316,-22.74 L 45.742,88.996 H 279.538 Z M 289.782,81.632 H 35.502 c -2.98,0 -5.404,-2.424 -5.404,-5.404 0,-2.98 2.424,-5.404 5.404,-5.404 h 254.28 c 2.98,0 5.404,2.424 5.404,5.404 0,2.98 -2.424,5.404 -5.404,5.404 z"
   id="path2"
   style="fill:#d40000" />
			<path
   d="m 91.67,110.828 c 5.976,0 10.836,4.512 10.848,10.312 l 15.568,162.288 c 0,5.556 -4.864,10.068 -10.836,10.068 -2.4,0 -4.716,-0.772 -6.688,-2.232 -1.148,-0.86 -2.76,-0.616 -3.6,0.536 -0.848,1.14 -0.608,2.756 0.536,3.6 2.864,2.128 6.236,3.244 9.752,3.244 8.82,0 15.992,-6.824 15.98,-15.46 L 107.662,120.896 c 0,-8.392 -7.172,-15.22 -15.992,-15.22 -1.424,0 -2.576,1.152 -2.576,2.58 0,1.42 1.152,2.572 2.576,2.572 z"
   id="path4"
   style="fill:#d40000" />
			<path
   d="m 95.254,259.668 c 0.072,0 0.14,-0.004 0.216,-0.012 1.42,-0.112 2.476,-1.352 2.356,-2.776 L 89.85,158.228 c -0.112,-1.42 -1.4,-2.448 -2.776,-2.356 -1.42,0.112 -2.476,1.352 -2.36,2.772 l 7.98,98.652 c 0.104,1.352 1.232,2.372 2.56,2.372 z"
   id="path6"
   style="fill:#d40000" />
			<path
   d="m 176.058,177.516 c -1.424,0 -2.576,1.152 -2.576,2.576 v 103.336 c 0,5.556 -4.864,10.068 -10.84,10.068 -2.4,0 -4.72,-0.772 -6.692,-2.232 -1.14,-0.856 -2.76,-0.612 -3.6,0.54 -0.848,1.14 -0.608,2.752 0.54,3.6 2.864,2.124 6.24,3.24 9.752,3.24 8.82,0 15.992,-6.824 15.992,-15.22 V 180.088 c 0,-1.424 -1.152,-2.572 -2.576,-2.572 z"
   id="path8"
   style="fill:#d40000" />
			<path
   d="m 154.418,254.94 c 1.424,0 2.576,-1.152 2.576,-2.576 V 112.368 c 1.724,-1.008 3.656,-1.54 5.652,-1.54 5.976,0 10.836,4.512 10.836,10.064 v 25.44 c 0,1.428 1.152,2.576 2.58,2.576 1.424,0 2.576,-1.148 2.576,-2.576 v -25.44 c 0,-8.392 -7.172,-15.22 -15.992,-15.22 -3.516,0 -6.892,1.12 -9.76,3.248 -0.656,0.48 -1.044,1.252 -1.044,2.068 v 141.376 c 0,1.424 1.152,2.576 2.576,2.576 z"
   id="path10"
   style="fill:#d40000" />
			<path
   d="m 219.05,132.444 c 1.432,0.156 2.636,-1.012 2.708,-2.436 l 0.948,-17.592 c 1.744,-1.044 3.704,-1.588 5.72,-1.588 5.972,0 10.836,4.512 10.844,9.908 l -10.392,162.692 c 0,5.552 -4.864,10.064 -10.836,10.064 -1.428,0 -2.58,1.152 -2.58,2.58 0,1.424 1.152,2.576 2.58,2.576 8.82,0 15.988,-6.828 15.984,-15.06 l 10.392,-162.692 c 0,-8.392 -7.172,-15.22 -15.992,-15.22 -3.516,0 -6.892,1.12 -9.76,3.248 -0.616,0.456 -1,1.168 -1.04,1.932 l -1.016,18.88 c -0.072,1.42 1.02,2.632 2.44,2.708 z"
   id="path12"
   style="fill:#d40000" />
			<path
   d="m 210.754,275.728 c 0.052,0.004 0.1,0.004 0.152,0.004 1.356,0 2.488,-1.056 2.572,-2.424 l 6.436,-109.056 c 0.084,-1.42 -0.996,-2.64 -2.42,-2.724 -1.36,-0.092 -2.636,1 -2.72,2.42 l -6.44,109.056 c -0.088,1.424 1,2.644 2.42,2.724 z"
   id="path14"
   style="fill:#d40000" />
			<path
   d="m 43.614,56.54 c 2.032,0 3.684,-1.648 3.684,-3.684 0,-12.288 9.996,-22.288 22.284,-22.288 H 255.71 c 12.288,0 22.284,9.996 22.284,22.288 0,2.032 1.648,3.684 3.684,3.684 2.036,0 3.684,-1.648 3.684,-3.684 0,-16.348 -13.3,-29.648 -29.648,-29.648 H 194.022 C 194.018,10.408 183.61,0 170.81,0 H 154.474 C 141.678,0 131.266,10.408 131.262,23.208 H 69.578 c -16.348,0 -29.648,13.3 -29.648,29.648 0,2.036 1.648,3.684 3.684,3.684 z M 154.474,7.364 h 16.336 c 8.736,0 15.844,7.108 15.848,15.844 h -48.032 c 0.004,-8.736 7.112,-15.844 15.848,-15.844 z"
   id="path16"
   style="fill:#d40000" />
			<path
   d="m 258.734,41.384 c -1.284,-0.608 -2.824,-0.064 -3.432,1.224 -0.608,1.284 -0.06,2.82 1.224,3.432 3.032,1.44 5.016,3.536 6.068,6.4 0.384,1.044 1.372,1.688 2.42,1.688 0.296,0 0.596,-0.052 0.888,-0.156 1.34,-0.492 2.024,-1.972 1.532,-3.308 -1.524,-4.136 -4.452,-7.26 -8.7,-9.28 z"
   id="path18"
   style="fill:#d40000" />
			<path
   d="m 220.206,38.056 c -3.748,0.056 -7.324,0.112 -10.616,0.112 -1.424,0 -2.576,1.152 -2.576,2.58 0,1.424 1.152,2.576 2.576,2.576 3.312,0 6.92,-0.056 10.692,-0.112 8.472,-0.124 18.056,-0.264 27.016,0.18 0.044,0.004 0.092,0.004 0.132,0.004 1.364,0 2.504,-1.072 2.572,-2.444 0.08,-1.42 -1.02,-2.632 -2.44,-2.704 -9.14,-0.464 -18.816,-0.316 -27.356,-0.192 z"
   id="path20"
   style="fill:#d40000" />
		</g>
	</g>
</g>
<g
   id="g28"
   transform="translate(-22.734,4)">
</g>
<g
   id="g30"
   transform="translate(-22.734,4)">
</g>
<g
   id="g32"
   transform="translate(-22.734,4)">
</g>
<g
   id="g34"
   transform="translate(-22.734,4)">
</g>
<g
   id="g36"
   transform="translate(-22.734,4)">
</g>
<g
   id="g38"
   transform="translate(-22.734,4)">
</g>
<g
   id="g40"
   transform="translate(-22.734,4)">
</g>
<g
   id="g42"
   transform="translate(-22.734,4)">
</g>
<g
   id="g44"
   transform="translate(-22.734,4)">
</g>
<g
   id="g46"
   transform="translate(-22.734,4)">
</g>
<g
   id="g48"
   transform="translate(-22.734,4)">
</g>
<g
   id="g50"
   transform="translate(-22.734,4)">
</g>
<g
   id="g52"
   transform="translate(-22.734,4)">
</g>
<g
   id="g54"
   transform="translate(-22.734,4)">
</g>
<g
   id="g56"
   transform="translate(-22.734,4)">
</g>
</svg>
