<?xml version="1.0" encoding="UTF-8" standalone="no"?>
<svg
   id="Layer_1"
   data-name="Layer 1"
   viewBox="0 0 32.000001 32.000001"
   version="1.1"
   sodipodi:docname="icon_settings.svg"
   width="8.4666662mm"
   height="8.4666662mm"
   inkscape:version="1.1.2 (0a00cf5339, 2022-02-04)"
   xmlns:inkscape="http://www.inkscape.org/namespaces/inkscape"
   xmlns:sodipodi="http://sodipodi.sourceforge.net/DTD/sodipodi-0.dtd"
   xmlns="http://www.w3.org/2000/svg"
   xmlns:svg="http://www.w3.org/2000/svg"
   xmlns:rdf="http://www.w3.org/1999/02/22-rdf-syntax-ns#"
   xmlns:cc="http://creativecommons.org/ns#"
   xmlns:dc="http://purl.org/dc/elements/1.1/">
  <defs
     id="defs9" />
  <sodipodi:namedview
     id="namedview7"
     pagecolor="#ffffff"
     bordercolor="#666666"
     borderopacity="1.0"
     inkscape:pageshadow="2"
     inkscape:pageopacity="0.0"
     inkscape:pagecheckerboard="0"
     showgrid="false"
     fit-margin-top="0"
     fit-margin-left="0"
     fit-margin-right="0"
     fit-margin-bottom="0"
     units="mm"
     inkscape:zoom="2.8453722"
     inkscape:cx="80.305838"
     inkscape:cy="84.698936"
     inkscape:window-width="1920"
     inkscape:window-height="1008"
     inkscape:window-x="0"
     inkscape:window-y="0"
     inkscape:window-maximized="1"
     inkscape:current-layer="Layer_1"
     inkscape:document-units="mm" />
  <title
     id="title2">repairing</title>
  <g
     id="g5070"
     transform="scale(0.2)">
    <g
       id="g5061">
      <circle
         style="fill:#ffff00;fill-opacity:0.999935;stroke-width:1"
         id="path69"
         cx="80"
         cy="80"
         r="80" />
    </g>
    <g
       id="g5064">
      <path
         d="m 41.243237,67.295604 c -5.7,1.17 -11.54,1.3 -17.22001,-4.52 -3.81,-3.9 -5.71,-9.72 -5.48,-15.81 14.55001,16.9 32.27001,-4 10.79001,-14.850001 10.4,-4.92 20.21,-0.3 25.39,9.260001 2.47,4.52 3.93,6.89 5.81,8.5 a 9.47,9.47 0 0 0 1.07,0.82 9.67,9.67 0 0 1 4.48,-5.33 8.66,8.66 0 0 1 3.889995,-0.92 c 3.79,0 8.52,2.26 9.32,6.13 v 0 a 2.32,2.32 0 0 1 0.52,-0.07 h 2.73 a 2.14,2.14 0 0 1 0.45,0.05 6.69,6.69 0 0 1 6,5.49 2,2 0 0 1 0.85,-0.19 h 2.75 a 2.14,2.14 0 0 1 0.45,0.05 c 4,0.61 5.55,3 6.12,6.12 a 3,3 0 0 1 0.31,0 h 2.769998 a 2.12,2.12 0 0 1 0.44,0.05 c 4.54,0.71 6.32,3.68 7,7.27 8.3,-1.28 17.41,-6.3 26.25,2.77 3.8,3.9 5.71,9.72 5.46,15.81 -14.55,-16.9 -32.27,4 -10.79,14.849996 -8.93,4.23 -17.43,1.4 -22.94,-5.559996 a 35.54,35.54 0 0 1 -2.79,5.859996 c -0.46,0.75 -0.92,1.51 -1.53,2.56 v 0.09 a 22.24,22.24 0 0 1 -1.55,2.35 h 1.91 a 3,3 0 0 1 3,3 v 16.22 a 3,3 0 0 1 -3,3 H 60.543237 a 3,3 0 0 1 -3,-3 v -16.27 a 3,3 0 0 1 3,-3 h 1 a 21,21 0 0 1 -1.07,-4.53 l -14.93,-24.369996 v -0.06 a 27.71,27.71 0 0 1 -3,-5.07 14.33,14.33 0 0 1 -1.29,-4.82 11.78,11.78 0 0 1 0,-1.88 z m 19.45,6.92 a 2.11,2.11 0 0 1 -0.31,-0.21 c -1.27,-1 -2.65,-2.14 -3.86,-3.12 l -5.19,-4.26 a 7.27,7.27 0 0 0 -3.08,-1.56 3.12,3.12 0 0 0 -1.71,0.06 1.8,1.8 0 0 0 -1,1 5.91,5.91 0 0 0 -0.35,2.81 10.65,10.65 0 0 0 1,3.47 22.16,22.16 0 0 0 2.53,4.28 l 0.12,0.19 15.17,24.799996 a 2.11,2.11 0 0 1 0.34,0.91 v 0 a 13.15,13.15 0 0 0 1.62,5.54 2.49,2.49 0 0 0 2.219995,1.26 h 23.87 a 7.17,7.17 0 0 0 4.07,-1.26 13.15,13.15 0 0 0 3.72,-4.36 l 0.06,-0.11 c 0.439998,-0.74 0.999998,-1.69 1.569998,-2.61 a 37.79,37.79 0 0 0 4.78,-15.519996 l -0.16,-6.81 a 2.81,2.81 0 0 1 0,-0.29 c 0,-0.09 0,-0.74 0,-1.6 0.06,-4.5 0.13,-10.07 -4,-10.77 h -2.649998 c 0,1.27 -0.1,2.55 -0.17,3.81 -0.07,1.26 -0.14,2.19 -0.14,3.22 a 2,2 0 0 1 -4,0 c 0,-1 0.08,-2.23 0.16,-3.47 0.27,-4.23 0.58,-9.1 -2.82,-9.71 h -2.63 a 2,2 0 0 1 -0.43,0 c 0,1.53 -0.08,3.13 -0.18,4.65 -0.07,1.12 -0.13,2.2 -0.13,3.22 a 2,2 0 1 1 -4,0 c 0,-1 0.08,-2.22 0.16,-3.46 0.26,-4.24 0.57,-9.1 -2.82,-9.71 h -2.64 a 2.11,2.11 0 0 1 -0.52,-0.07 v 7.74 a 2,2 0 0 1 -4,0 v -9.88 c 0,-2.76 -2.75,-4 -5.32,-4 a 4.61,4.61 0 0 0 -2.07,0.5 c -1.799995,0.91 -3.199995,3.49 -3.199995,7.06 v 21.96 a 2,2 0 0 1 -4,0 v -3.7 z m 0,-7.12 -1.88,-0.77 a 24.07,24.07 0 0 0 -2.63,-0.89 l 2.87,2.34 1.64,1.35 v -2 z"
         id="path4"
         style="fill:#e30017;fill-opacity:1" />
    </g>
  </g>
  <metadata
     id="metadata173">
    <rdf:RDF>
      <cc:Work
         rdf:about="">
        <dc:title>repairing</dc:title>
      </cc:Work>
    </rdf:RDF>
  </metadata>
</svg>
