<?xml version="1.0" encoding="UTF-8" standalone="no"?>
<svg
   version="1.1"
   id="Layer_1"
   x="0px"
   y="0px"
   viewBox="0 0 32 32.126805"
   xml:space="preserve"
   sodipodi:docname="icon_settings2.svg"
   width="32"
   height="32.126804"
   inkscape:version="1.1.2 (0a00cf5339, 2022-02-04)"
   xmlns:inkscape="http://www.inkscape.org/namespaces/inkscape"
   xmlns:sodipodi="http://sodipodi.sourceforge.net/DTD/sodipodi-0.dtd"
   xmlns="http://www.w3.org/2000/svg"
   xmlns:svg="http://www.w3.org/2000/svg"><defs
     id="defs5143" /><sodipodi:namedview
     id="namedview5141"
     pagecolor="#ffffff"
     bordercolor="#666666"
     borderopacity="1.0"
     inkscape:pageshadow="2"
     inkscape:pageopacity="0.0"
     inkscape:pagecheckerboard="0"
     showgrid="false"
     fit-margin-top="0"
     fit-margin-left="0"
     fit-margin-right="0"
     fit-margin-bottom="0"
     inkscape:zoom="2.3190433"
     inkscape:cx="-119.66141"
     inkscape:cy="61.663359"
     inkscape:window-width="1920"
     inkscape:window-height="1008"
     inkscape:window-x="0"
     inkscape:window-y="0"
     inkscape:window-maximized="1"
     inkscape:current-layer="Layer_1" /><style
     type="text/css"
     id="style5134">.st0{fill-rule:evenodd;clip-rule:evenodd;}</style><g
     id="g5138"
     style="fill:#d40000"
     transform="matrix(0.26144589,0,0,0.26144589,-4.8850623e-4,1.6729751e-4)"><path
       class="st0"
       d="m 22.72,70.1 c -8.37,1.51 -16.51,4.35 -20.93,15.44 -2.87,7.19 -2.21,15.85 1.44,23.7 9.88,-30.07 44.48,-12.31 22.22,13.6 16.29,0.81 26.61,-10.58 28.23,-25.95 0.77,-7.26 1.4,-11.17 2.99,-14.3 0.85,-1.73 2.03,-3.17 3.61,-4.9 5.34,-5.86 11.28,-10.98 17.1,-17.06 10.95,-11.46 34.31,-0.88 43.23,-23.29 2.87,-7.19 2.21,-15.85 -1.44,-23.7 C 109.29,43.71 74.69,25.95 96.95,0.04 80.66,-0.77 70.34,10.62 68.72,25.99 c -0.7,6.74 0.48,12.49 -7,20.2 -5.27,5.27 -10.84,10.61 -16.25,15.77 -2.14,2.06 -3.69,3.32 -5.49,4.2 -3.24,1.62 -7.26,2.1 -17.17,3.87 z"
       id="path5136"
       style="fill:#d40000" /></g></svg>
