<?xml version="1.0" encoding="UTF-8" standalone="no"?>
<svg
   viewBox="0 0 32 32"
   version="1.1"
   id="svg8"
   sodipodi:docname="attendance.svg"
   inkscape:version="1.1.1 (3bf5ae0d25, 2021-09-20)"
   inkscape:export-filename="/home/mt/Development/WZ/wz-data/icons/attendance.png"
   inkscape:export-xdpi="96"
   inkscape:export-ydpi="96"
   xmlns:inkscape="http://www.inkscape.org/namespaces/inkscape"
   xmlns:sodipodi="http://sodipodi.sourceforge.net/DTD/sodipodi-0.dtd"
   xmlns="http://www.w3.org/2000/svg"
   xmlns:svg="http://www.w3.org/2000/svg">
  <defs
     id="defs12" />
  <sodipodi:namedview
     id="namedview10"
     pagecolor="#ffffff"
     bordercolor="#666666"
     borderopacity="1.0"
     inkscape:pageshadow="2"
     inkscape:pageopacity="0.0"
     inkscape:pagecheckerboard="0"
     showgrid="false"
     inkscape:zoom="25.4375"
     inkscape:cx="16.019656"
     inkscape:cy="16.019656"
     inkscape:window-width="1920"
     inkscape:window-height="1007"
     inkscape:window-x="0"
     inkscape:window-y="0"
     inkscape:window-maximized="1"
     inkscape:current-layer="svg8" />
  <path
     d="m4 9h24v19h-24z"
     fill="#fff"
     id="path2" />
  <path
     d="m3 9v19c0 .554.446 1 1 1h24c .554 0 1-.446 1-1v-19h-1v4h-7v-4h-1v4h-8v-4h-1v4h-7v-4zm1 5h7v4h-7zm8 0h8v4h-8zm9 0h7v4h-7zm-17 5h7v4h-7zm8 0h8v4h-8zm9 0h7v4h-7zm-17 5h7v4h-7zm8 0h8v4h-8zm9 0h7v4h-7z"
     fill="#808080"
     id="path4" />
  <path
     d="m3 3h26v6h-26z"
     id="path6"
     style="fill:#d40000" />
</svg>
