<?xml version="1.0" encoding="UTF-8" standalone="no"?>
<!-- Created with Inkscape (http://www.inkscape.org/) -->

<svg
   width="16.933332mm"
   height="16.933332mm"
   viewBox="0 0 16.933332 16.933332"
   version="1.1"
   id="svg5"
   inkscape:version="1.1.1 (3bf5ae0d25, 2021-09-20)"
   sodipodi:docname="cash0a.svg"
   xmlns:inkscape="http://www.inkscape.org/namespaces/inkscape"
   xmlns:sodipodi="http://sodipodi.sourceforge.net/DTD/sodipodi-0.dtd"
   xmlns="http://www.w3.org/2000/svg"
   xmlns:svg="http://www.w3.org/2000/svg">
  <sodipodi:namedview
     id="namedview7"
     pagecolor="#ffffff"
     bordercolor="#666666"
     borderopacity="1.0"
     inkscape:pageshadow="2"
     inkscape:pageopacity="0.0"
     inkscape:pagecheckerboard="0"
     inkscape:document-units="mm"
     showgrid="false"
     fit-margin-top="0"
     fit-margin-left="0"
     fit-margin-right="0"
     fit-margin-bottom="0"
     scale-x="1"
     units="mm"
     width="512px"
     inkscape:zoom="1.5488348"
     inkscape:cx="10.007523"
     inkscape:cy="15.818343"
     inkscape:window-width="1920"
     inkscape:window-height="1007"
     inkscape:window-x="0"
     inkscape:window-y="0"
     inkscape:window-maximized="1"
     inkscape:current-layer="g1090" />
  <defs
     id="defs2" />
  <g
     inkscape:label="Layer 1"
     inkscape:groupmode="layer"
     id="layer1"
     transform="translate(-102.26838,-129.87348)"
     style="display:inline">
    <g
       id="g1090"
       transform="matrix(0.12865793,0,0,0.12493324,96.9446,120.40129)"
       style="display:inline">
      <path
         style="display:inline;fill:#008000;stroke-width:0.264583"
         d="m 86.575036,210.92659 c -2.161373,-0.33663 -7.384812,-2.15552 -20.854039,-7.26171 -1.819011,-0.68958 -3.396589,-1.20328 -3.505729,-1.14154 -0.109141,0.0617 -0.198438,0.51419 -0.198438,1.00545 0,1.22429 -0.340426,2.01719 -1.369069,3.18875 -1.58483,1.80503 -2.260325,1.95985 -8.579469,1.96643 -3.486071,0.004 -5.920704,-0.10729 -6.482292,-0.29532 -1.477097,-0.49455 -2.637729,-1.53888 -3.306514,-2.9752 l -0.630402,-1.35388 -0.0011,-23.94479 c -7.52e-4,-16.20388 0.09044,-24.2745 0.282084,-24.96468 0.155756,-0.56094 0.766931,-1.54468 1.358166,-2.1861 1.651373,-1.79153 2.766848,-2.02056 9.285312,-1.90651 4.846607,0.0848 5.440442,0.14594 6.400585,0.659 1.992967,1.06498 3.042708,2.7367 3.042708,4.84554 0,0.84478 0.122901,1.3822 0.330729,1.44619 0.181901,0.056 1.539852,0.1712 3.017668,0.25597 l 2.686939,0.15413 -0.140779,-2.05391 c -0.186434,-2.72001 0.313571,-7.67783 1.153054,-11.4332 3.040303,-13.60058 12.538267,-27.49546 26.25364,-38.40729 1.158695,-0.92184 2.066144,-1.74173 2.016551,-1.82198 -0.04959,-0.0802 -1.16866,-0.0597 -2.486819,0.0456 -5.917216,0.47278 -10.774719,2.84294 -13.275431,6.47761 -0.703599,1.02264 -0.911683,1.1563 -1.800172,1.1563 -2.201791,0 -2.490467,-1.75888 -0.69007,-4.20454 2.886003,-3.92036 8.288768,-6.50042 15.147709,-7.2337 1.63711,-0.17503 2.976563,-0.42975 2.976563,-0.56605 0,-0.442603 -2.214504,-2.316431 -3.571875,-3.022386 -1.240158,-0.644994 -1.637398,-0.699462 -6.35,-0.870691 -4.442311,-0.161408 -5.252053,-0.261853 -6.961068,-0.863492 -2.666325,-0.938647 -4.791773,-2.19915 -5.107225,-3.028854 -0.356431,-0.937485 0.14293,-2.043791 1.101796,-2.440966 0.687258,-0.284673 0.964227,-0.21166 2.821572,0.743809 2.991752,1.539036 3.902258,1.72314 8.806384,1.780645 3.704111,0.04343 4.600204,0.136356 5.913725,0.613242 1.88966,0.686057 3.13907,1.437394 4.560705,2.742595 0.981091,0.900735 1.128776,0.957958 1.587505,0.615097 0.49795,-0.372187 0.49795,-0.391523 -5.3e-4,-1.251058 -2.199525,-3.792279 -3.174898,-5.628959 -3.856304,-7.261613 -2.086856,-5.000136 -2.135576,-8.473674 -0.145901,-10.402142 0.761433,-0.738011 1.116356,-0.890103 2.053105,-0.879797 0.622893,0.0069 1.668315,0.262208 2.32316,0.567454 1.63537,0.762303 2.11231,0.714989 4.28997,-0.425574 1.65336,-0.865952 2.11531,-0.989525 3.63085,-0.971264 1.45211,0.0175 2.04951,0.179973 3.6481,0.992187 1.05134,0.534196 2.17355,0.971265 2.49375,0.971265 0.3202,0 1.48403,-0.446096 2.5863,-0.991325 2.78801,-1.37908 4.38674,-1.379245 7.21331,-7.43e-4 2.34863,1.145412 2.64852,1.177577 4.3158,0.462901 3.43733,-1.473413 5.68854,0.228896 5.68854,4.301538 0,3.150932 -1.53359,7.133934 -4.78233,12.420545 l -1.581,2.572725 0.89492,1.266658 c 1.14407,1.619304 1.49966,2.699924 1.49966,4.557454 v 1.49205 l 2.71198,2.16294 c 4.19774,3.34792 4.697,3.86724 4.6923,4.88083 -0.002,0.48036 -0.0915,1.00439 -0.19844,1.1645 -0.25818,0.38667 -1.25199,0.89951 -1.74309,0.89951 -0.21608,0 -1.97522,-1.30011 -3.9092,-2.88913 l -3.51634,-2.88914 -1.06913,0.62449 c -2.75103,1.60691 -8.33169,2.39136 -15.35662,2.15862 -5.05812,-0.16757 -9.06078,-0.80979 -11.05639,-1.77396 l -1.051236,-0.5079 -2.809729,2.29621 c -3.54334,2.89573 -9.611849,8.95905 -12.251711,12.24122 -6.157584,7.65581 -10.408091,16.15678 -12.122044,24.24396 -0.616918,2.91089 -1.019637,10.89747 -0.603638,11.97111 0.195061,0.50344 0.770075,0.80088 2.887548,1.49367 2.679488,0.87668 6.151242,2.50002 9.454147,4.42064 2.709063,1.5753 5.15198,2.73786 6.783257,3.2281 0.800365,0.24053 7.014776,1.08645 13.809796,1.87981 13.54591,1.58158 14.16681,1.71717 16.82529,3.67423 2.94571,2.16851 4.69561,5.48086 5.00328,9.47061 0.13572,1.75999 0.22676,2.06124 0.58361,1.93111 0.23255,-0.0848 5.76484,-2.5016 12.29397,-5.37068 l 11.87116,-5.21652 1.16445,-1.98437 c 1.38337,-2.35746 2.55158,-5.28659 3.48222,-8.73125 0.62979,-2.33111 0.67996,-2.93601 0.69129,-8.33438 0.0115,-5.4835 -0.031,-6.00362 -0.73299,-8.97502 -2.16356,-9.15749 -6.48048,-17.2462 -13.62226,-25.52441 -1.41046,-1.6349 -1.89273,-2.38997 -1.89273,-2.96338 0,-1.04746 0.83989,-1.82781 1.96728,-1.82781 0.78298,0 1.11117,0.22919 2.36791,1.65365 7.3845,8.36997 12.59451,17.86684 14.74936,26.88527 2.0669,8.65039 1.5906,17.63214 -1.32282,24.9449 -0.42649,1.07051 -0.69039,1.97871 -0.58645,2.01821 0.10394,0.0395 0.95523,-0.27204 1.89175,-0.69231 4.5938,-2.06152 8.20931,-1.66377 10.84239,1.19279 1.66649,1.80793 2.22879,3.26251 2.23349,5.7777 0.003,1.77044 -0.11321,2.35523 -0.71236,3.57518 -0.39398,0.80218 -1.10835,1.82689 -1.5875,2.27714 -0.79564,0.74764 -35.94853,23.14305 -39.17176,24.95577 -1.90793,1.073 -5.73414,2.30353 -8.21908,2.6433 -3.19086,0.43628 -33.538176,0.33142 -36.475255,-0.12604 z m 39.074084,-4.32003 c 1.01864,-0.34258 2.44739,-0.92374 3.175,-1.29145 1.73209,-0.87536 37.91307,-23.77381 38.72045,-24.50564 2.06409,-1.87097 1.73783,-5.49257 -0.63578,-7.05724 -1.14433,-0.75434 -2.95999,-0.66828 -5.23226,0.24799 -1.04289,0.42053 -9.6246,4.171 -19.07048,8.33437 l -17.1743,7.56977 h -11.99601 c -11.64322,0 -12.01156,-0.0156 -12.52516,-0.52917 -0.69266,-0.69265 -0.67278,-1.7974 0.0461,-2.56263 l 0.57529,-0.61237 h 10.6695 10.6695 v -2.06864 c 0,-2.53404 -0.53307,-4.42567 -1.66923,-5.92332 -1.0067,-1.32703 -2.99755,-2.74024 -4.37455,-3.10531 -0.53222,-0.1411 -6.20642,-0.86033 -12.60934,-1.59829 -6.939224,-0.79977 -12.487743,-1.5691 -13.736267,-1.9046 -1.981046,-0.53233 -4.821655,-1.87339 -11.328611,-5.34827 -4.815466,-2.57159 -9.165505,-3.84518 -14.556474,-4.26182 l -2.315104,-0.17891 v 2.76239 c 0,3.16023 -0.279421,4.23013 -1.216244,4.65697 -0.958835,0.43688 -1.450224,0.37391 -2.140141,-0.27423 -0.605479,-0.56882 -0.612365,-0.64334 -0.612365,-6.62661 v -6.05132 l -0.649432,-0.64943 c -0.644786,-0.64479 -0.686067,-0.64944 -5.770943,-0.64944 -4.788407,0 -5.159173,0.0351 -5.700568,0.53948 l -0.579057,0.53947 v 23.74332 c 0,21.06134 0.04652,23.80975 0.411878,24.33136 0.402702,0.57494 0.53195,0.58804 5.80163,0.58804 h 5.389752 l 0.54837,-0.69714 c 0.538739,-0.6849 0.54837,-0.93781 0.54837,-14.40059 v -13.70345 l 0.697139,-0.54837 c 0.907535,-0.71387 1.487442,-0.6921 2.396961,0.09 l 0.742358,0.63832 0.07696,11.0997 0.07696,11.0997 11.435784,4.25262 c 6.289683,2.33894 12.02958,4.3682 12.755329,4.50946 0.788324,0.15345 8.562557,0.23901 19.311205,0.21253 l 17.99167,-0.0443 z m -4.42513,-100.85588 c 4.40139,-0.74694 5.08659,-1.22631 5.08659,-3.55865 0,-1.0164 -0.13918,-1.36754 -0.80652,-2.03489 -0.89859,-0.898591 -0.78279,-0.89745 -5.01432,-0.0494 -3.59469,0.72044 -10.40966,0.64853 -14.36146,-0.151544 l -3.11667,-0.630994 -0.71979,0.534348 c -1.02317,0.75958 -1.42136,1.64333 -1.27908,2.83881 0.19218,1.61467 0.9768,2.18721 3.85967,2.81641 5.16666,1.12764 10.6323,1.20649 16.35158,0.23589 z m -0.0326,-9.759472 2.95061,-0.606958 1.23551,-1.950374 c 2.87111,-4.532309 5.16639,-9.753796 5.16639,-11.752905 0,-0.700441 -0.0776,-0.808386 -0.46302,-0.643755 -1.33384,0.569801 -3.2132,0.915293 -4.16719,0.766072 -0.58208,-0.09105 -1.86215,-0.570554 -2.84459,-1.065566 -0.98244,-0.495012 -2.08699,-0.900022 -2.45457,-0.900022 -0.36757,0 -1.50642,0.439043 -2.53078,0.975651 -2.61063,1.36758 -4.35643,1.36758 -7.23616,0 -1.12995,-0.536608 -2.35502,-0.975651 -2.72238,-0.975651 -0.36737,0 -1.28095,0.350732 -2.03019,0.779404 -2.02276,1.157303 -3.58811,1.437947 -5.41241,0.970362 -0.820506,-0.210305 -1.670427,-0.422146 -1.888708,-0.470757 -0.554339,-0.123452 -0.424903,1.531363 0.292923,3.744896 0.635476,1.959606 2.884385,6.372112 4.596795,9.019233 1.1068,1.710932 1.21454,1.798175 2.56458,2.07661 4.76461,0.982664 10.26981,0.995102 14.94319,0.03376 z m -9.40424,64.263912 c -1.60062,-0.32217 -4.37847,-1.66077 -6.02294,-2.90236 -2.32692,-1.75684 -4.66732,-5.21362 -5.37174,-7.93408 -0.16893,-0.65241 -0.36762,-1.39455 -0.441522,-1.64921 -0.104542,-0.36023 -0.424098,-0.46302 -1.43946,-0.46302 h -1.305086 v -1.5875 -1.5875 h 1.190625 1.190625 v -1.17541 -1.17542 l -1.124479,-0.0814 -1.12448,-0.0814 -0.07935,-1.52136 -0.07935,-1.52135 h 1.283115 1.283115 l 0.566097,-1.91823 c 1.50514,-5.10021 5.24147,-7.73134 10.01823,-7.05487 0.91331,0.12934 2.11423,0.44217 2.66873,0.69516 1.1496,0.52453 3.94253,2.33233 4.16873,2.69833 0.0829,0.13409 -0.23717,1.09348 -0.7112,2.13199 l -0.86187,1.8882 -0.92604,-0.70425 c -2.50029,-1.90148 -5.35186,-2.49567 -7.03918,-1.46677 -0.98958,0.60344 -1.93297,2.05658 -2.13221,3.28435 -0.14391,0.88678 -0.13073,0.9009 1.00706,1.07908 0.63408,0.0993 2.31373,0.49071 3.73256,0.86979 l 2.57969,0.68925 v 1.71041 c 0,1.3568 -0.0765,1.68106 -0.37016,1.56838 -1.20254,-0.46146 -7.06819,-1.77934 -7.29517,-1.63906 -0.14969,0.0925 -0.27217,0.63517 -0.27217,1.20589 0,0.91637 0.0851,1.05661 0.7276,1.19962 0.40018,0.0891 1.83955,0.44853 3.19858,0.79879 1.35904,0.35027 2.5199,0.63685 2.57969,0.63685 0.0598,0 0.10871,0.78682 0.10871,1.74848 0,1.68561 -0.0214,1.74255 -0.59531,1.58386 -0.32742,-0.0905 -1.66688,-0.45 -2.97656,-0.79882 l -2.38125,-0.63421 -0.0902,0.54875 c -0.15531,0.94476 1.56407,3.92427 2.81333,4.87521 1.42932,1.088 4.13754,1.93715 6.17822,1.93715 h 1.56955 l -0.0761,2.4474 -0.0761,2.44739 -1.45521,0.0428 c -0.80037,0.0235 -1.97809,-0.0624 -2.61717,-0.19104 z"
         id="path1092"
         inkscape:label="path1092" />
    </g>
  </g>
</svg>
