<?xml version="1.0" encoding="UTF-8" standalone="no"?>
<svg
   data-name="Layer 1"
   id="Layer_1"
   viewBox="0 0 32 31.267256"
   version="1.1"
   sodipodi:docname="lesson.svg"
   width="64"
   height="62.534512"
   inkscape:version="1.1.1 (3bf5ae0d25, 2021-09-20)"
   xmlns:inkscape="http://www.inkscape.org/namespaces/inkscape"
   xmlns:sodipodi="http://sodipodi.sourceforge.net/DTD/sodipodi-0.dtd"
   xmlns="http://www.w3.org/2000/svg"
   xmlns:svg="http://www.w3.org/2000/svg">
  <defs
     id="defs21">
    <inkscape:path-effect
       effect="fill_between_many"
       method="originald"
       linkedpaths="#path41117,0,1|#path41114,0,1|#path41111,0,1"
       id="path-effect41155"
       is_visible="true"
       lpeversion="0"
       join="true"
       close="true"
       autoreverse="true"
       applied="false" />
  </defs>
  <sodipodi:namedview
     id="namedview19"
     pagecolor="#ffffff"
     bordercolor="#666666"
     borderopacity="1.0"
     inkscape:pageshadow="2"
     inkscape:pageopacity="0.0"
     inkscape:pagecheckerboard="0"
     showgrid="false"
     fit-margin-top="0"
     fit-margin-left="0"
     fit-margin-right="0"
     fit-margin-bottom="0"
     inkscape:zoom="6.359375"
     inkscape:cx="24.29484"
     inkscape:cy="25.710074"
     inkscape:window-width="1920"
     inkscape:window-height="1007"
     inkscape:window-x="0"
     inkscape:window-y="0"
     inkscape:window-maximized="1"
     inkscape:current-layer="Layer_1"
     scale-x="0.5" />
  <g
     id="g2044">
    <path
       d="m 29.061749,26.695579 a 2.5037162,2.5511825 0 1 0 -2.873824,0 4.40018,4.4836002 0 0 0 -2.590761,2.46598 4.40018,4.4836002 0 0 0 -2.592816,-2.46598 2.5037162,2.5511825 0 1 0 -2.873825,0 4.3864723,4.4696326 0 0 0 -2.940307,4.21193 0.34954701,0.35617385 0 1 0 0.699094,0 3.6784683,3.748206 0 0 1 7.356251,0 0.34954701,0.35617385 0 1 0 0.699094,0 3.6784683,3.748206 0 0 1 7.356251,0 0.34954701,0.35617385 0 1 0 0.699094,0 4.3864723,4.4696326 0 0 0 -2.938251,-4.21193 z M 17.765212,24.609518 a 1.8039367,1.8381364 0 1 1 1.804623,1.838136 1.8066783,1.8409299 0 0 1 -1.804623,-1.838136 z m 8.055346,0 a 1.8039367,1.8381364 0 1 1 1.803936,1.838136 1.8059929,1.8402316 0 0 1 -1.803936,-1.838136 z"
       id="path2"
       style="fill:#0000ff;stroke-width:0.0691853" />
    <path
       d="m 28.196792,10.716642 a 0.23782905,0.24233789 0 0 0 0.02125,-0.03073 0.27415452,0.27935204 0 0 0 0.01919,-0.03771 4.7092893,4.7985697 0 1 0 -0.04044,0.06984 z m 0,-2.5092791 A 3.9862067,4.0617787 0 0 1 27.78556,10.004295 L 24.534773,8.0062294 V 4.1379021 a 4.0149929,4.0911106 0 0 1 3.660648,4.0694608 z m -8.01902,0 A 4.0143076,4.0904122 0 0 1 23.83842,4.1379021 V 12.279617 A 4.0149929,4.0911106 0 0 1 20.175031,8.2073629 Z m 4.357001,4.0722541 V 8.8380001 l 2.888903,1.7759799 a 4.0122514,4.0883171 0 0 1 -2.888903,1.665637 z"
       id="path4"
       style="fill:#0000ff;stroke-width:0.0691853" />
    <path
       d="M 18.695282,5.2629924 A 0.34954701,0.35617385 0 0 0 18.345735,4.9068186 H 14.79749 a 0.34954701,0.35617385 0 1 0 0,0.7123477 h 3.548245 a 0.34954701,0.35617385 0 0 0 0.349547,-0.3561739 z"
       id="path6"
       style="fill:#0000ff;stroke-width:0.0691853" />
    <path
       d="M 17.88447,7.69126 A 0.34954701,0.35617385 0 0 0 17.534923,7.3350862 H 14.79749 a 0.34954701,0.35617385 0 1 0 0,0.7123477 h 2.737433 A 0.34954701,0.35617385 0 0 0 17.88447,7.69126 Z"
       id="path8"
       style="fill:#0000ff;stroke-width:0.0691853" />
    <path
       d="m 14.79749,9.7654489 a 0.34954701,0.35617385 0 0 0 0,0.7123471 h 2.12881 a 0.34954701,0.35617385 0 1 0 0,-0.7123471 z"
       id="path10"
       style="fill:#0000ff;stroke-width:0.0691853" />
    <path
       d="m 20.228491,17.35684 a 1.5112768,1.5399281 0 0 0 -1.843689,-2.439441 l -3.109598,2.347953 -2.056159,-2.822154 C 12.186168,13.026884 11.076528,12.290791 9.5549704,12.062421 A 3.3145281,3.3773662 0 1 0 5.6688301,12.042861 3.9067019,3.9807666 0 0 0 2.4344922,15.95379 v 6.731685 a 1.4612436,1.4889464 0 0 0 1.476322,1.481963 1.4393112,1.4665982 0 0 0 0.753925,-0.2158 v 6.959358 a 0.34954701,0.35617385 0 1 0 0.699094,0 V 17.195514 a 0.34954701,0.35617385 0 1 0 -0.699094,0 v 5.489966 a 0.7655765,0.78009057 0 0 1 -1.531153,0 v -6.72959 a 3.2028102,3.2635302 0 0 1 3.1980125,-3.257245 h 2.0856305 c 2.2042018,0 3.2898538,0.868785 4.2391138,2.17266 l 2.265887,3.107792 a 0.34954701,0.35617385 0 0 0 0.48868,0.07333 l 3.389921,-2.560262 a 0.80944122,0.8247869 0 0 1 1.131573,0.184373 0.79710427,0.81221606 0 0 1 -0.140504,1.126487 l -3.413224,2.782346 a 2.0218896,2.0602213 0 0 1 -2.795691,-0.282844 l -1.965002,-2.384968 a 0.34954701,0.35617385 0 0 0 -0.616848,0.229069 v 13.760881 a 0.34954701,0.35617385 0 0 0 0.699094,0 V 18.122265 l 1.348155,1.635606 a 2.7271521,2.7788544 0 0 0 3.769625,0.381316 z M 5.0081177,9.3177873 A 2.6161195,2.6657168 0 1 1 7.6242372,11.983504 2.6195464,2.6692087 0 0 1 5.0081177,9.3177873 Z"
       id="path12"
       style="fill:#0000ff;stroke-width:0.0691853" />
    <path
       d="M 8.156097,22.678497 A 0.34954701,0.35617385 0 0 0 7.80655,23.03467 v 7.872839 a 0.34954701,0.35617385 0 0 0 0.699094,0 V 23.03467 A 0.34954701,0.35617385 0 0 0 8.156097,22.678497 Z"
       id="path14"
       style="fill:#0000ff;stroke-width:0.0691853" />
    <path
       d="M 29.960291,19.060888 H 19.825484 a 0.34954701,0.35617385 0 0 0 0,0.712347 h 10.48641 a 0.34954701,0.35617385 0 0 0 0.349547,-0.356173 V 0.35617385 A 0.34954701,0.35617385 0 0 0 30.311894,0 H 0.34954701 A 0.34954701,0.35617385 0 0 0 0,0.35617385 V 14.406184 a 0.34954702,0.35617386 0 1 0 0.69909403,0 V 0.7123477 H 29.960291 Z"
       id="path16"
       style="fill:#0000ff;stroke-width:0.0691853" />
    <path
       inkscape:original-d="M 4.848e-7,4.183e-7"
       inkscape:path-effect="#path-effect41155"
       d="M 4.848e-7,4.183e-7"
       id="path41157" />
  </g>
</svg>
