<?xml version="1.0" encoding="UTF-8" standalone="no"?>
<svg
   viewBox="0 0 32 32"
   version="1.1"
   id="svg16"
   xmlns="http://www.w3.org/2000/svg"
   xmlns:svg="http://www.w3.org/2000/svg">
  <defs
     id="defs20" />
  <path
     d="m8 20v7h16v-7z"
     fill="#fff"
     fill-rule="evenodd"
     id="path2" />
  <path
     d="m7 20v7.142578c0 .474857.3825649.857422.8574219.857422h16.2851561c.474857 0 .857422-.382565.857422-.857422v-7.142578h-1v7h-16v-7z"
      id="path4"
     fill="#b3b3b3" />
  <path
     d="m3 10c-.6282872 0-1 .457457-1 1v11c0 .554.446 1 1 1h26c .554 0 1-.446 1-1v-11c0-.554-.421822-1-1-1h-2v3c0 .554-.446 1-1 1h-20c-.554 0-1-.446-1-1v-3z"
     id="path6"
     fill="#b3b3b3" />
  <path
     d="m7 9.000125c-.554 0-1 .446-1 1v2.296875c0 .554.446 1 1 1h18c .554 0 1-.446 1-1v-2.296875c0-.554-.446-1-1-1h-5-8z"
     id="path8"
     fill="#afc6e9" />
  <path
     d="m7.8574219 4.000125c-.473825.0312909-.8574219.3825649-.8574219.8574219v5.1425781 1h1v-1-5h4 8 4v5 1h1v-1-5.1425781c0-.474857-.383597-.826131-.857422-.8574219h-4.142578-8z"
     id="path10"
     fill="#b3b3b3" />
  <path
     d="m8 5.000125v5 1h16v-1-5h-4-8z"
     fill="#fff"
     fill-rule="evenodd"
     id="path12" />
  <path
     d="m26 20h2v1h-2z"
     fill="#fff"
     id="path14" />
  <path
     d="m 14.777665,21.620126 c 0.754791,-1.422954 1.612614,-3.026036 2.299214,-4.635699 l 0.271474,-0.635386 C 16.451541,13.06666 15.913774,10.431889 16.3942,8.7283322 c 0.129339,-0.444158 0.664187,-0.713665 1.23602,-0.713665 l 0.348454,0.00501 h 0.06395 c 0.782875,-0.011574 1.151481,0.9462771 1.193334,1.3186809 0.06908,0.6202132 -0.229248,1.6698539 -0.229248,1.6698539 0,-0.423866 0.01718,-1.1087581 -0.260881,-1.6997843 -0.323777,-0.6838742 -0.63304,-1.092402 -0.910297,-1.157163 -0.139988,0.089928 -0.276054,0.2761708 -0.322688,0.6344213 -0.09654,0.5023101 -0.125474,1.1363472 -0.125474,1.463181 0,1.154766 0.236406,2.678964 0.700972,4.250217 0.08763,-0.243267 0.164752,-0.477007 0.226071,-0.696016 0.09527,-0.345145 0.700885,-2.633064 0.700885,-2.633064 0,0 -0.152613,3.045586 -0.365802,3.967163 -0.04569,0.194724 -0.09607,0.387328 -0.148547,0.584446 0.766071,2.058752 2.000486,3.896125 3.473083,5.218605 0.580593,0.521888 1.313886,0.942724 2.007902,1.326279 1.515595,-0.208298 2.911125,-0.306679 4.075117,-0.294288 1.544538,0.01956 2.678299,0.239302 3.137283,0.674264 0.224784,0.211409 0.31602,0.466734 0.344333,0.752955 0.0065,0.111345 -0.04965,0.372981 -0.06618,0.438653 0.01661,-0.07949 0.01661,-0.470373 -1.223337,-0.851035 -0.976511,-0.300237 -2.804058,-0.290901 -4.996923,-0.0664 2.536478,1.193563 5.007515,1.786601 5.790761,1.431075 0.191462,-0.08973 0.423687,-0.395751 0.423687,-0.395751 0,0 -0.138042,0.603223 -0.237149,0.754002 -0.126505,0.16383 -0.374619,0.341317 -0.609879,0.40115 -1.236764,0.317361 -4.45615,-0.417038 -7.262786,-1.959462 -3.135566,0.444158 -6.579163,1.264685 -9.339708,2.135516 -2.712566,4.572371 -4.7518727,6.672147 -6.4108334,5.873373 L 6.996374,30.865496 C 6.7484387,30.72909 6.7105932,30.39705 6.7679338,30.126663 6.9613701,29.216457 8.1480073,27.845545 10.531586,26.476696 10.788145,26.327378 11.93101,25.74618 11.93101,25.74618 c 0,0 -0.846084,0.787624 -1.044301,0.942202 -1.9025229,1.499525 -3.3067572,3.386186 -3.2715446,4.117502 l 0.00679,0.06376 C 9.2380865,30.64814 11.661572,27.484295 14.777386,21.620559 m 0.987417,0.486287 c -0.520415,0.942725 -1.029097,1.816778 -1.498731,2.619324 2.597828,-1.046859 5.393699,-1.716771 8.055481,-2.192676 -0.357665,-0.23757 -0.704887,-0.489124 -1.031642,-0.755051 -1.465669,-1.193509 -2.583113,-2.682517 -3.393213,-4.249392 -0.51369,1.33107 -1.124515,2.745515 -2.131886,4.577878"
     enable-background="new"
     stroke-width="0.0727608"
     id="path15"
     fill="#ff0000" />
</svg>
